<svg width="1201" height="50" viewBox="0 0 1201 50" fill="none" xmlns="http://www.w3.org/2000/svg">
<path d="M44.88 39V38.6L45.68 38.28C46.2133 38.0933 46.56 37.84 46.72 37.52C46.9067 37.2 47 36.7733 47 36.24V15.36C47 14.8267 46.92 14.4 46.76 14.08C46.6 13.76 46.24 13.5067 45.68 13.32L44.88 13V12.6H55.16V13L54.36 13.32C53.8267 13.5067 53.4667 13.76 53.28 14.08C53.12 14.4 53.04 14.8267 53.04 15.36V36.24C53.04 36.7733 53.12 37.2 53.28 37.52C53.4667 37.8133 53.8267 38.0667 54.36 38.28L55.16 38.6V39H44.88ZM56.8313 39V38.6L57.3913 38.44C58.3246 38.1733 58.7913 37.52 58.7913 36.48V23.96C58.7913 23.3733 58.6979 22.9467 58.5113 22.68C58.3246 22.3867 57.9646 22.1867 57.4313 22.08L56.8313 21.92V21.52L63.6713 19.2L64.0713 19.6L64.3913 22C65.3246 21.1733 66.3779 20.4933 67.5513 19.96C68.7246 19.4267 69.8846 19.16 71.0313 19.16C72.7913 19.16 74.1379 19.64 75.0713 20.6C76.0313 21.56 76.5113 23.0267 76.5113 25V36.52C76.5113 37.56 77.0179 38.2133 78.0313 38.48L78.3913 38.6V39H68.9513V38.6L69.4713 38.44C70.4046 38.1467 70.8713 37.4933 70.8713 36.48V23.72C70.8713 22.0133 70.0179 21.16 68.3113 21.16C67.1379 21.16 65.8579 21.7467 64.4713 22.92V36.52C64.4713 37.56 64.9379 38.2133 65.8713 38.48L66.2313 38.6V39H56.8313ZM87.3609 39.6C85.6543 39.6 84.3209 39.1733 83.3609 38.32C82.4276 37.4667 81.9609 36.1067 81.9609 34.24V20.56H79.2009V20.16L80.1609 20C80.9876 19.8133 81.6943 19.5467 82.2809 19.2C82.8943 18.8533 83.4943 18.3867 84.0809 17.8L87.3609 14.16H87.7609L87.6409 19.76H92.1209V20.56H87.6009V34.96C87.6009 35.8933 87.8009 36.6 88.2009 37.08C88.6276 37.56 89.1609 37.8 89.8009 37.8C90.3609 37.8 90.8543 37.6667 91.2809 37.4C91.7076 37.1067 92.1343 36.72 92.5609 36.24L92.9609 36.64C92.4276 37.5467 91.6943 38.2667 90.7609 38.8C89.8276 39.3333 88.6943 39.6 87.3609 39.6ZM104.137 19.16C105.87 19.16 107.35 19.52 108.577 20.24C109.804 20.9333 110.737 21.8933 111.377 23.12C112.044 24.32 112.377 25.6933 112.377 27.24C112.377 27.5333 112.364 27.84 112.337 28.16C112.31 28.4533 112.257 28.72 112.177 28.96H100.257C100.284 31.84 100.79 33.92 101.777 35.2C102.79 36.4533 104.284 37.08 106.257 37.08C107.59 37.08 108.67 36.8667 109.497 36.44C110.324 36.0133 111.097 35.3867 111.817 34.56L112.217 34.92C111.39 36.3867 110.284 37.5333 108.897 38.36C107.537 39.1867 105.897 39.6 103.977 39.6C102.084 39.6 100.404 39.2 98.9369 38.4C97.4702 37.5733 96.3235 36.4 95.4969 34.88C94.6702 33.36 94.2569 31.5467 94.2569 29.44C94.2569 27.2533 94.7369 25.4 95.6969 23.88C96.6569 22.3333 97.8835 21.16 99.3769 20.36C100.897 19.56 102.484 19.16 104.137 19.16ZM104.017 19.96C103.244 19.96 102.577 20.2 102.017 20.68C101.484 21.1333 101.057 21.96 100.737 23.16C100.444 24.3333 100.284 26 100.257 28.16H107.097C107.364 25.2533 107.257 23.16 106.777 21.88C106.297 20.6 105.377 19.96 104.017 19.96ZM114.37 39V38.6L114.97 38.44C115.504 38.28 115.864 38.04 116.05 37.72C116.264 37.4 116.37 36.9867 116.37 36.48V23.96C116.37 23.3733 116.264 22.9467 116.05 22.68C115.864 22.3867 115.504 22.1867 114.97 22.08L114.37 21.92V21.52L121.25 19.2L121.65 19.6L122.01 23.04V23.36C122.384 22.6133 122.864 21.9333 123.45 21.32C124.064 20.68 124.73 20.16 125.45 19.76C126.197 19.36 126.93 19.16 127.65 19.16C128.664 19.16 129.437 19.44 129.97 20C130.504 20.56 130.77 21.2667 130.77 22.12C130.77 23.0267 130.504 23.7333 129.97 24.24C129.464 24.72 128.85 24.96 128.13 24.96C127.01 24.96 126.024 24.4 125.17 23.28L125.09 23.2C124.824 22.8267 124.517 22.6267 124.17 22.6C123.824 22.5467 123.504 22.7067 123.21 23.08C122.944 23.32 122.717 23.6133 122.53 23.96C122.37 24.28 122.21 24.6533 122.05 25.08V36.24C122.05 37.3067 122.517 37.9733 123.45 38.24L124.73 38.6V39H114.37ZM132.027 39V38.6L132.587 38.44C133.52 38.1733 133.987 37.52 133.987 36.48V23.96C133.987 23.3733 133.893 22.9467 133.707 22.68C133.52 22.3867 133.16 22.1867 132.627 22.08L132.027 21.92V21.52L138.867 19.2L139.267 19.6L139.587 22C140.52 21.1733 141.573 20.4933 142.747 19.96C143.92 19.4267 145.08 19.16 146.227 19.16C147.987 19.16 149.333 19.64 150.267 20.6C151.227 21.56 151.707 23.0267 151.707 25V36.52C151.707 37.56 152.213 38.2133 153.227 38.48L153.587 38.6V39H144.147V38.6L144.667 38.44C145.6 38.1467 146.067 37.4933 146.067 36.48V23.72C146.067 22.0133 145.213 21.16 143.507 21.16C142.333 21.16 141.053 21.7467 139.667 22.92V36.52C139.667 37.56 140.133 38.2133 141.067 38.48L141.427 38.6V39H132.027ZM165.272 39.6C163.245 39.6 161.485 39.1867 159.992 38.36C158.498 37.5067 157.338 36.3067 156.512 34.76C155.712 33.2133 155.312 31.4 155.312 29.32C155.312 27.24 155.738 25.44 156.592 23.92C157.472 22.4 158.658 21.2267 160.152 20.4C161.672 19.5733 163.378 19.16 165.272 19.16C167.165 19.16 168.858 19.5733 170.352 20.4C171.845 21.2 173.018 22.36 173.872 23.88C174.752 25.4 175.192 27.2133 175.192 29.32C175.192 31.4267 174.778 33.2533 173.952 34.8C173.152 36.32 172.005 37.5067 170.512 38.36C169.045 39.1867 167.298 39.6 165.272 39.6ZM165.272 38.8C166.205 38.8 166.952 38.5333 167.512 38C168.072 37.4667 168.472 36.52 168.712 35.16C168.978 33.8 169.112 31.88 169.112 29.4C169.112 26.8933 168.978 24.96 168.712 23.6C168.472 22.24 168.072 21.2933 167.512 20.76C166.952 20.2267 166.205 19.96 165.272 19.96C164.338 19.96 163.578 20.2267 162.992 20.76C162.432 21.2933 162.018 22.24 161.752 23.6C161.512 24.96 161.392 26.8933 161.392 29.4C161.392 31.88 161.512 33.8 161.752 35.16C162.018 36.52 162.432 37.4667 162.992 38C163.578 38.5333 164.338 38.8 165.272 38.8Z" fill="#292F36"/>
<path d="M0 42.0003H13.4588V32.499C13.4588 30.4853 15.0898 28.8543 17.1035 28.8543C19.1172 28.8543 20.7482 30.4853 20.7482 32.499V42.0003H33.9975V8C15.2211 8 0 23.2211 0 42.0003Z" fill="#CDA274"/>
<path d="M579.032 24.7H588.632V23.1H579.032V24.7ZM587.492 17.5V31.5H589.192V17.5H587.492ZM578.092 17.5V31.5H579.792V17.5H578.092ZM591.489 26.9C591.489 27.82 591.696 28.6467 592.109 29.38C592.536 30.1 593.109 30.6667 593.829 31.08C594.549 31.4933 595.356 31.7 596.249 31.7C597.156 31.7 597.962 31.4933 598.669 31.08C599.389 30.6667 599.956 30.1 600.369 29.38C600.796 28.6467 601.009 27.82 601.009 26.9C601.009 25.9667 600.796 25.14 600.369 24.42C599.956 23.7 599.389 23.1333 598.669 22.72C597.962 22.3067 597.156 22.1 596.249 22.1C595.356 22.1 594.549 22.3067 593.829 22.72C593.109 23.1333 592.536 23.7 592.109 24.42C591.696 25.14 591.489 25.9667 591.489 26.9ZM593.109 26.9C593.109 26.26 593.242 25.6933 593.509 25.2C593.789 24.6933 594.162 24.3 594.629 24.02C595.109 23.74 595.649 23.6 596.249 23.6C596.849 23.6 597.382 23.74 597.849 24.02C598.329 24.3 598.702 24.6933 598.969 25.2C599.249 25.6933 599.389 26.26 599.389 26.9C599.389 27.54 599.249 28.1067 598.969 28.6C598.702 29.0933 598.329 29.4867 597.849 29.78C597.382 30.06 596.849 30.2 596.249 30.2C595.649 30.2 595.109 30.06 594.629 29.78C594.162 29.4867 593.789 29.0933 593.509 28.6C593.242 28.1067 593.109 27.54 593.109 26.9ZM615.807 25.7C615.807 24.94 615.687 24.2933 615.447 23.76C615.22 23.2133 614.887 22.8 614.447 22.52C614.007 22.24 613.474 22.1 612.847 22.1C612.234 22.1 611.687 22.2467 611.207 22.54C610.727 22.82 610.327 23.2467 610.007 23.82C609.794 23.2733 609.454 22.8533 608.987 22.56C608.534 22.2533 607.987 22.1 607.347 22.1C606.774 22.1 606.274 22.2267 605.847 22.48C605.434 22.7333 605.087 23.12 604.807 23.64V22.3H603.207V31.5H604.807V25.9C604.807 25.42 604.894 25.0067 605.067 24.66C605.24 24.3133 605.487 24.0533 605.807 23.88C606.127 23.6933 606.507 23.6 606.947 23.6C607.547 23.6 607.987 23.7867 608.267 24.16C608.56 24.5333 608.707 25.1133 608.707 25.9V31.5H610.307V25.9C610.307 25.42 610.394 25.0067 610.567 24.66C610.74 24.3133 610.987 24.0533 611.307 23.88C611.627 23.6933 612.007 23.6 612.447 23.6C613.047 23.6 613.487 23.7867 613.767 24.16C614.06 24.5333 614.207 25.1133 614.207 25.9V31.5H615.807V25.7ZM622.373 31.7C623.359 31.7 624.213 31.5067 624.933 31.12C625.666 30.72 626.273 30.1333 626.753 29.36L625.453 28.54C625.119 29.1 624.713 29.52 624.233 29.8C623.753 30.0667 623.199 30.2 622.573 30.2C621.946 30.2 621.413 30.0667 620.973 29.8C620.533 29.5333 620.199 29.1467 619.973 28.64C619.746 28.1333 619.633 27.52 619.633 26.8C619.646 26.0933 619.766 25.5 619.993 25.02C620.233 24.5267 620.566 24.1533 620.993 23.9C621.433 23.6333 621.959 23.5 622.573 23.5C623.093 23.5 623.546 23.6133 623.933 23.84C624.319 24.0667 624.619 24.38 624.833 24.78C625.059 25.18 625.173 25.6533 625.173 26.2C625.173 26.2933 625.153 26.4133 625.113 26.56C625.073 26.6933 625.033 26.7933 624.993 26.86L625.633 25.94H619.033V27.3H626.893C626.893 27.2733 626.893 27.2133 626.893 27.12C626.906 27.0133 626.913 26.9133 626.913 26.82C626.913 25.8467 626.739 25.0067 626.393 24.3C626.046 23.5933 625.546 23.0533 624.893 22.68C624.253 22.2933 623.479 22.1 622.573 22.1C621.666 22.1 620.866 22.3 620.173 22.7C619.493 23.1 618.959 23.66 618.573 24.38C618.199 25.1 618.013 25.94 618.013 26.9C618.013 27.8467 618.193 28.68 618.553 29.4C618.926 30.12 619.439 30.6867 620.093 31.1C620.759 31.5 621.519 31.7 622.373 31.7ZM677.174 17.5V31.5H678.874V17.5H677.174ZM678.114 19.1H680.974C681.881 19.1 682.614 19.32 683.174 19.76C683.748 20.1867 684.034 20.8333 684.034 21.7C684.034 22.5533 683.748 23.2 683.174 23.64C682.614 24.08 681.881 24.3 680.974 24.3H678.114V25.9H680.974C681.881 25.9 682.688 25.7333 683.394 25.4C684.114 25.0533 684.681 24.5667 685.094 23.94C685.521 23.3 685.734 22.5533 685.734 21.7C685.734 20.8333 685.521 20.0867 685.094 19.46C684.681 18.8333 684.114 18.3533 683.394 18.02C682.688 17.6733 681.881 17.5 680.974 17.5H678.114V19.1ZM688.146 28.66C688.146 28.3267 688.226 28.04 688.386 27.8C688.546 27.56 688.786 27.3733 689.106 27.24C689.439 27.1067 689.866 27.04 690.386 27.04C690.946 27.04 691.472 27.1133 691.966 27.26C692.459 27.3933 692.939 27.62 693.406 27.94V27C693.312 26.88 693.132 26.7267 692.866 26.54C692.599 26.34 692.239 26.1667 691.786 26.02C691.346 25.86 690.792 25.78 690.126 25.78C688.992 25.78 688.106 26.0533 687.466 26.6C686.839 27.1333 686.526 27.8467 686.526 28.74C686.526 29.3667 686.672 29.9 686.966 30.34C687.259 30.78 687.646 31.12 688.126 31.36C688.619 31.5867 689.146 31.7 689.706 31.7C690.212 31.7 690.719 31.6067 691.226 31.42C691.746 31.2333 692.179 30.9467 692.526 30.56C692.886 30.1733 693.066 29.6867 693.066 29.1L692.746 27.9C692.746 28.38 692.626 28.8067 692.386 29.18C692.159 29.54 691.846 29.82 691.446 30.02C691.059 30.22 690.619 30.32 690.126 30.32C689.739 30.32 689.392 30.26 689.086 30.14C688.792 30.0067 688.559 29.8133 688.386 29.56C688.226 29.3067 688.146 29.0067 688.146 28.66ZM687.906 24.42C688.052 24.3133 688.252 24.1867 688.506 24.04C688.759 23.8933 689.066 23.7667 689.426 23.66C689.799 23.5533 690.212 23.5 690.666 23.5C690.946 23.5 691.212 23.5267 691.466 23.58C691.719 23.6333 691.939 23.72 692.126 23.84C692.326 23.96 692.479 24.1267 692.586 24.34C692.692 24.54 692.746 24.8 692.746 25.12V31.5H694.346V24.9C694.346 24.3 694.192 23.7933 693.886 23.38C693.592 22.9667 693.172 22.6533 692.626 22.44C692.092 22.2133 691.466 22.1 690.746 22.1C689.892 22.1 689.159 22.2267 688.546 22.48C687.946 22.7333 687.472 22.9867 687.126 23.24L687.906 24.42ZM696.435 32.1C696.435 32.8867 696.628 33.58 697.015 34.18C697.401 34.7933 697.935 35.2667 698.615 35.6C699.308 35.9333 700.101 36.1 700.995 36.1C701.768 36.1 702.501 35.92 703.195 35.56C703.888 35.2 704.455 34.66 704.895 33.94C705.335 33.2333 705.555 32.3533 705.555 31.3V22.3H703.955V31.3C703.955 32.0733 703.801 32.7 703.495 33.18C703.201 33.6733 702.828 34.0333 702.375 34.26C701.921 34.4867 701.461 34.6 700.995 34.6C700.395 34.6 699.875 34.48 699.435 34.24C698.995 34.0133 698.655 33.7067 698.415 33.32C698.175 32.9467 698.055 32.54 698.055 32.1H696.435ZM696.255 26.9C696.255 27.8867 696.461 28.74 696.875 29.46C697.288 30.18 697.841 30.7333 698.535 31.12C699.228 31.5067 699.988 31.7 700.815 31.7C701.588 31.7 702.261 31.5067 702.835 31.12C703.408 30.7333 703.855 30.18 704.175 29.46C704.508 28.74 704.675 27.8867 704.675 26.9C704.675 25.9 704.508 25.0467 704.175 24.34C703.855 23.62 703.408 23.0667 702.835 22.68C702.261 22.2933 701.588 22.1 700.815 22.1C699.988 22.1 699.228 22.2933 698.535 22.68C697.841 23.0667 697.288 23.62 696.875 24.34C696.461 25.0467 696.255 25.9 696.255 26.9ZM697.875 26.9C697.875 26.1933 698.015 25.5933 698.295 25.1C698.588 24.6067 698.975 24.2333 699.455 23.98C699.935 23.7267 700.455 23.6 701.015 23.6C701.361 23.6 701.708 23.6733 702.055 23.82C702.401 23.9667 702.715 24.18 702.995 24.46C703.288 24.74 703.521 25.0867 703.695 25.5C703.868 25.9 703.955 26.3667 703.955 26.9C703.955 27.6067 703.808 28.2067 703.515 28.7C703.221 29.1933 702.848 29.5667 702.395 29.82C701.941 30.0733 701.481 30.2 701.015 30.2C700.455 30.2 699.935 30.0733 699.455 29.82C698.975 29.5667 698.588 29.1933 698.295 28.7C698.015 28.2067 697.875 27.6067 697.875 26.9ZM712.021 31.7C713.008 31.7 713.861 31.5067 714.581 31.12C715.314 30.72 715.921 30.1333 716.401 29.36L715.101 28.54C714.768 29.1 714.361 29.52 713.881 29.8C713.401 30.0667 712.848 30.2 712.221 30.2C711.594 30.2 711.061 30.0667 710.621 29.8C710.181 29.5333 709.848 29.1467 709.621 28.64C709.394 28.1333 709.281 27.52 709.281 26.8C709.294 26.0933 709.414 25.5 709.641 25.02C709.881 24.5267 710.214 24.1533 710.641 23.9C711.081 23.6333 711.608 23.5 712.221 23.5C712.741 23.5 713.194 23.6133 713.581 23.84C713.968 24.0667 714.268 24.38 714.481 24.78C714.708 25.18 714.821 25.6533 714.821 26.2C714.821 26.2933 714.801 26.4133 714.761 26.56C714.721 26.6933 714.681 26.7933 714.641 26.86L715.281 25.94H708.681V27.3H716.541C716.541 27.2733 716.541 27.2133 716.541 27.12C716.554 27.0133 716.561 26.9133 716.561 26.82C716.561 25.8467 716.388 25.0067 716.041 24.3C715.694 23.5933 715.194 23.0533 714.541 22.68C713.901 22.2933 713.128 22.1 712.221 22.1C711.314 22.1 710.514 22.3 709.821 22.7C709.141 23.1 708.608 23.66 708.221 24.38C707.848 25.1 707.661 25.94 707.661 26.9C707.661 27.8467 707.841 28.68 708.201 29.4C708.574 30.12 709.088 30.6867 709.741 31.1C710.408 31.5 711.168 31.7 712.021 31.7ZM719.134 28.68L717.874 29.46C718.047 29.82 718.301 30.1733 718.634 30.52C718.981 30.8667 719.401 31.1533 719.894 31.38C720.387 31.5933 720.941 31.7 721.554 31.7C722.501 31.7 723.261 31.4333 723.834 30.9C724.421 30.3667 724.714 29.7 724.714 28.9C724.714 28.3533 724.581 27.9067 724.314 27.56C724.061 27.2133 723.714 26.92 723.274 26.68C722.834 26.4267 722.347 26.1933 721.814 25.98C721.494 25.8467 721.187 25.7067 720.894 25.56C720.601 25.4133 720.361 25.2467 720.174 25.06C719.987 24.8733 719.894 24.66 719.894 24.42C719.894 24.1133 720.014 23.8867 720.254 23.74C720.494 23.5933 720.781 23.52 721.114 23.52C721.594 23.52 722.021 23.6333 722.394 23.86C722.781 24.0867 723.101 24.3733 723.354 24.72L724.634 23.9C724.447 23.5533 724.187 23.2467 723.854 22.98C723.521 22.7133 723.134 22.5 722.694 22.34C722.267 22.18 721.807 22.1 721.314 22.1C720.821 22.1 720.341 22.1867 719.874 22.36C719.421 22.5333 719.047 22.8 718.754 23.16C718.474 23.52 718.334 23.9733 718.334 24.52C718.334 25.0533 718.467 25.5 718.734 25.86C719.014 26.2067 719.354 26.4933 719.754 26.72C720.167 26.9333 720.574 27.12 720.974 27.28C721.334 27.4133 721.674 27.56 721.994 27.72C722.314 27.8667 722.574 28.0533 722.774 28.28C722.987 28.4933 723.094 28.76 723.094 29.08C723.094 29.44 722.961 29.7267 722.694 29.94C722.441 30.14 722.087 30.24 721.634 30.24C721.261 30.24 720.914 30.1733 720.594 30.04C720.287 29.8933 720.014 29.7 719.774 29.46C719.534 29.22 719.321 28.96 719.134 28.68ZM775.409 27.26L774.049 28.18C774.356 28.7933 774.749 29.3733 775.229 29.92C775.722 30.4533 776.289 30.8867 776.929 31.22C777.582 31.54 778.289 31.7 779.049 31.7C779.609 31.7 780.142 31.6067 780.649 31.42C781.169 31.2333 781.629 30.9667 782.029 30.62C782.442 30.2733 782.762 29.8533 782.989 29.36C783.229 28.8667 783.349 28.3133 783.349 27.7C783.349 27.06 783.236 26.5133 783.009 26.06C782.782 25.5933 782.489 25.2 782.129 24.88C781.782 24.5467 781.402 24.2733 780.989 24.06C780.576 23.8467 780.182 23.6733 779.809 23.54C778.996 23.26 778.349 22.98 777.869 22.7C777.402 22.4067 777.069 22.1 776.869 21.78C776.669 21.4467 776.569 21.0867 776.569 20.7C776.569 20.2467 776.742 19.84 777.089 19.48C777.436 19.1067 777.989 18.92 778.749 18.92C779.296 18.92 779.756 19.0267 780.129 19.24C780.516 19.4533 780.842 19.7267 781.109 20.06C781.376 20.3933 781.596 20.7333 781.769 21.08L783.229 20.24C783.002 19.7467 782.689 19.28 782.289 18.84C781.889 18.3867 781.402 18.02 780.829 17.74C780.269 17.4467 779.609 17.3 778.849 17.3C778.062 17.3 777.362 17.46 776.749 17.78C776.136 18.0867 775.656 18.5133 775.309 19.06C774.962 19.6067 774.789 20.2267 774.789 20.92C774.789 21.56 774.909 22.1 775.149 22.54C775.402 22.98 775.722 23.3533 776.109 23.66C776.496 23.9533 776.902 24.2 777.329 24.4C777.756 24.5867 778.142 24.74 778.489 24.86C779.022 25.0467 779.522 25.26 779.989 25.5C780.469 25.7267 780.856 26.0267 781.149 26.4C781.442 26.7733 781.589 27.2733 781.589 27.9C781.589 28.54 781.362 29.0667 780.909 29.48C780.456 29.8933 779.856 30.1 779.109 30.1C778.549 30.1 778.049 29.98 777.609 29.74C777.169 29.5 776.769 29.1667 776.409 28.74C776.062 28.3133 775.729 27.82 775.409 27.26ZM789.306 31.7C790.293 31.7 791.146 31.5067 791.866 31.12C792.599 30.72 793.206 30.1333 793.686 29.36L792.386 28.54C792.053 29.1 791.646 29.52 791.166 29.8C790.686 30.0667 790.133 30.2 789.506 30.2C788.879 30.2 788.346 30.0667 787.906 29.8C787.466 29.5333 787.133 29.1467 786.906 28.64C786.679 28.1333 786.566 27.52 786.566 26.8C786.579 26.0933 786.699 25.5 786.926 25.02C787.166 24.5267 787.499 24.1533 787.926 23.9C788.366 23.6333 788.893 23.5 789.506 23.5C790.026 23.5 790.479 23.6133 790.866 23.84C791.253 24.0667 791.553 24.38 791.766 24.78C791.993 25.18 792.106 25.6533 792.106 26.2C792.106 26.2933 792.086 26.4133 792.046 26.56C792.006 26.6933 791.966 26.7933 791.926 26.86L792.566 25.94H785.966V27.3H793.826C793.826 27.2733 793.826 27.2133 793.826 27.12C793.839 27.0133 793.846 26.9133 793.846 26.82C793.846 25.8467 793.673 25.0067 793.326 24.3C792.979 23.5933 792.479 23.0533 791.826 22.68C791.186 22.2933 790.413 22.1 789.506 22.1C788.599 22.1 787.799 22.3 787.106 22.7C786.426 23.1 785.893 23.66 785.506 24.38C785.133 25.1 784.946 25.94 784.946 26.9C784.946 27.8467 785.126 28.68 785.486 29.4C785.859 30.12 786.373 30.6867 787.026 31.1C787.693 31.5 788.453 31.7 789.306 31.7ZM797.639 22.3H796.039V31.5H797.639V22.3ZM800.419 24.06L801.299 22.74C801.059 22.4867 800.792 22.32 800.499 22.24C800.219 22.1467 799.912 22.1 799.579 22.1C799.152 22.1 798.732 22.2667 798.319 22.6C797.906 22.9333 797.566 23.3867 797.299 23.96C797.046 24.52 796.919 25.1667 796.919 25.9H797.639C797.639 25.46 797.679 25.0667 797.759 24.72C797.852 24.3733 798.012 24.1 798.239 23.9C798.466 23.7 798.779 23.6 799.179 23.6C799.446 23.6 799.666 23.64 799.839 23.72C800.012 23.7867 800.206 23.9 800.419 24.06ZM802 22.3L806.4 32.2L810.8 22.3H809L806.4 28.8L803.8 22.3H802ZM812.309 18.5C812.309 18.7933 812.415 19.0533 812.629 19.28C812.855 19.4933 813.115 19.6 813.409 19.6C813.715 19.6 813.975 19.4933 814.189 19.28C814.402 19.0533 814.509 18.7933 814.509 18.5C814.509 18.1933 814.402 17.9333 814.189 17.72C813.975 17.5067 813.715 17.4 813.409 17.4C813.115 17.4 812.855 17.5067 812.629 17.72C812.415 17.9333 812.309 18.1933 812.309 18.5ZM812.609 22.3V31.5H814.209V22.3H812.609ZM818.224 26.9C818.224 26.26 818.357 25.6933 818.624 25.2C818.904 24.6933 819.277 24.3 819.744 24.02C820.224 23.74 820.764 23.6 821.364 23.6C821.857 23.6 822.317 23.68 822.744 23.84C823.184 23.9867 823.564 24.1867 823.884 24.44C824.204 24.6933 824.431 24.9733 824.564 25.28V23.28C824.244 22.9067 823.784 22.62 823.184 22.42C822.597 22.2067 821.991 22.1 821.364 22.1C820.471 22.1 819.664 22.3067 818.944 22.72C818.224 23.1333 817.651 23.7 817.224 24.42C816.811 25.14 816.604 25.9667 816.604 26.9C816.604 27.82 816.811 28.6467 817.224 29.38C817.651 30.1 818.224 30.6667 818.944 31.08C819.664 31.4933 820.471 31.7 821.364 31.7C821.991 31.7 822.597 31.6 823.184 31.4C823.784 31.1867 824.244 30.8933 824.564 30.52V28.52C824.431 28.8133 824.204 29.0933 823.884 29.36C823.564 29.6133 823.184 29.82 822.744 29.98C822.317 30.1267 821.857 30.2 821.364 30.2C820.764 30.2 820.224 30.06 819.744 29.78C819.277 29.4867 818.904 29.0933 818.624 28.6C818.357 28.1067 818.224 27.54 818.224 26.9ZM830.615 31.7C831.601 31.7 832.455 31.5067 833.175 31.12C833.908 30.72 834.515 30.1333 834.995 29.36L833.695 28.54C833.361 29.1 832.955 29.52 832.475 29.8C831.995 30.0667 831.441 30.2 830.815 30.2C830.188 30.2 829.655 30.0667 829.215 29.8C828.775 29.5333 828.441 29.1467 828.215 28.64C827.988 28.1333 827.875 27.52 827.875 26.8C827.888 26.0933 828.008 25.5 828.235 25.02C828.475 24.5267 828.808 24.1533 829.235 23.9C829.675 23.6333 830.201 23.5 830.815 23.5C831.335 23.5 831.788 23.6133 832.175 23.84C832.561 24.0667 832.861 24.38 833.075 24.78C833.301 25.18 833.415 25.6533 833.415 26.2C833.415 26.2933 833.395 26.4133 833.355 26.56C833.315 26.6933 833.275 26.7933 833.235 26.86L833.875 25.94H827.275V27.3H835.135C835.135 27.2733 835.135 27.2133 835.135 27.12C835.148 27.0133 835.155 26.9133 835.155 26.82C835.155 25.8467 834.981 25.0067 834.635 24.3C834.288 23.5933 833.788 23.0533 833.135 22.68C832.495 22.2933 831.721 22.1 830.815 22.1C829.908 22.1 829.108 22.3 828.415 22.7C827.735 23.1 827.201 23.66 826.815 24.38C826.441 25.1 826.255 25.94 826.255 26.9C826.255 27.8467 826.435 28.68 826.795 29.4C827.168 30.12 827.681 30.6867 828.335 31.1C829.001 31.5 829.761 31.7 830.615 31.7ZM837.728 28.68L836.468 29.46C836.641 29.82 836.894 30.1733 837.228 30.52C837.574 30.8667 837.994 31.1533 838.488 31.38C838.981 31.5933 839.534 31.7 840.148 31.7C841.094 31.7 841.854 31.4333 842.428 30.9C843.014 30.3667 843.308 29.7 843.308 28.9C843.308 28.3533 843.174 27.9067 842.908 27.56C842.654 27.2133 842.308 26.92 841.868 26.68C841.428 26.4267 840.941 26.1933 840.408 25.98C840.088 25.8467 839.781 25.7067 839.488 25.56C839.194 25.4133 838.954 25.2467 838.768 25.06C838.581 24.8733 838.488 24.66 838.488 24.42C838.488 24.1133 838.608 23.8867 838.848 23.74C839.088 23.5933 839.374 23.52 839.708 23.52C840.188 23.52 840.614 23.6333 840.988 23.86C841.374 24.0867 841.694 24.3733 841.948 24.72L843.228 23.9C843.041 23.5533 842.781 23.2467 842.448 22.98C842.114 22.7133 841.728 22.5 841.288 22.34C840.861 22.18 840.401 22.1 839.908 22.1C839.414 22.1 838.934 22.1867 838.468 22.36C838.014 22.5333 837.641 22.8 837.348 23.16C837.068 23.52 836.928 23.9733 836.928 24.52C836.928 25.0533 837.061 25.5 837.328 25.86C837.608 26.2067 837.948 26.4933 838.348 26.72C838.761 26.9333 839.168 27.12 839.568 27.28C839.928 27.4133 840.268 27.56 840.588 27.72C840.908 27.8667 841.168 28.0533 841.368 28.28C841.581 28.4933 841.688 28.76 841.688 29.08C841.688 29.44 841.554 29.7267 841.288 29.94C841.034 30.14 840.681 30.24 840.228 30.24C839.854 30.24 839.508 30.1733 839.188 30.04C838.881 29.8933 838.608 29.7 838.368 29.46C838.128 29.22 837.914 28.96 837.728 28.68ZM893.483 17.5V31.5H895.183V17.5H893.483ZM894.423 19.1H897.283C898.189 19.1 898.923 19.32 899.483 19.76C900.056 20.1867 900.343 20.8333 900.343 21.7C900.343 22.5533 900.056 23.2 899.483 23.64C898.923 24.08 898.189 24.3 897.283 24.3H894.423V25.9H897.283C898.189 25.9 898.996 25.7333 899.703 25.4C900.423 25.0533 900.989 24.5667 901.403 23.94C901.829 23.3 902.043 22.5533 902.043 21.7C902.043 20.8333 901.829 20.0867 901.403 19.46C900.989 18.8333 900.423 18.3533 899.703 18.02C898.996 17.6733 898.189 17.5 897.283 17.5H894.423V19.1ZM905.549 22.3H903.949V31.5H905.549V22.3ZM908.329 24.06L909.209 22.74C908.969 22.4867 908.703 22.32 908.409 22.24C908.129 22.1467 907.823 22.1 907.489 22.1C907.063 22.1 906.643 22.2667 906.229 22.6C905.816 22.9333 905.476 23.3867 905.209 23.96C904.956 24.52 904.829 25.1667 904.829 25.9H905.549C905.549 25.46 905.589 25.0667 905.669 24.72C905.763 24.3733 905.923 24.1 906.149 23.9C906.376 23.7 906.689 23.6 907.089 23.6C907.356 23.6 907.576 23.64 907.749 23.72C907.923 23.7867 908.116 23.9 908.329 24.06ZM909.712 26.9C909.712 27.82 909.918 28.6467 910.332 29.38C910.758 30.1 911.332 30.6667 912.052 31.08C912.772 31.4933 913.578 31.7 914.472 31.7C915.378 31.7 916.185 31.4933 916.892 31.08C917.612 30.6667 918.178 30.1 918.592 29.38C919.018 28.6467 919.232 27.82 919.232 26.9C919.232 25.9667 919.018 25.14 918.592 24.42C918.178 23.7 917.612 23.1333 916.892 22.72C916.185 22.3067 915.378 22.1 914.472 22.1C913.578 22.1 912.772 22.3067 912.052 22.72C911.332 23.1333 910.758 23.7 910.332 24.42C909.918 25.14 909.712 25.9667 909.712 26.9ZM911.332 26.9C911.332 26.26 911.465 25.6933 911.732 25.2C912.012 24.6933 912.385 24.3 912.852 24.02C913.332 23.74 913.872 23.6 914.472 23.6C915.072 23.6 915.605 23.74 916.072 24.02C916.552 24.3 916.925 24.6933 917.192 25.2C917.472 25.6933 917.612 26.26 917.612 26.9C917.612 27.54 917.472 28.1067 917.192 28.6C916.925 29.0933 916.552 29.4867 916.072 29.78C915.605 30.06 915.072 30.2 914.472 30.2C913.872 30.2 913.332 30.06 912.852 29.78C912.385 29.4867 912.012 29.0933 911.732 28.6C911.465 28.1067 911.332 27.54 911.332 26.9ZM921.17 18.5C921.17 18.7933 921.276 19.0467 921.49 19.26C921.703 19.4733 921.956 19.58 922.25 19.58C922.556 19.58 922.81 19.4733 923.01 19.26C923.223 19.0467 923.33 18.7933 923.33 18.5C923.33 18.1933 923.223 17.94 923.01 17.74C922.81 17.5267 922.556 17.42 922.25 17.42C921.956 17.42 921.703 17.5267 921.49 17.74C921.276 17.94 921.17 18.1933 921.17 18.5ZM919.59 33.78L918.71 35.1C918.843 35.2733 918.996 35.42 919.17 35.54C919.343 35.66 919.536 35.7467 919.75 35.8C919.963 35.8667 920.203 35.9 920.47 35.9C921.03 35.9 921.51 35.7733 921.91 35.52C922.31 35.2667 922.61 34.9 922.81 34.42C923.023 33.94 923.13 33.3667 923.13 32.7V22.3H921.53V32.5C921.53 32.9267 921.496 33.2733 921.43 33.54C921.363 33.8067 921.256 34 921.11 34.12C920.976 34.24 920.796 34.3 920.57 34.3C920.356 34.3 920.163 34.2533 919.99 34.16C919.83 34.0667 919.696 33.94 919.59 33.78ZM929.99 31.7C930.976 31.7 931.83 31.5067 932.55 31.12C933.283 30.72 933.89 30.1333 934.37 29.36L933.07 28.54C932.736 29.1 932.33 29.52 931.85 29.8C931.37 30.0667 930.816 30.2 930.19 30.2C929.563 30.2 929.03 30.0667 928.59 29.8C928.15 29.5333 927.816 29.1467 927.59 28.64C927.363 28.1333 927.25 27.52 927.25 26.8C927.263 26.0933 927.383 25.5 927.61 25.02C927.85 24.5267 928.183 24.1533 928.61 23.9C929.05 23.6333 929.576 23.5 930.19 23.5C930.71 23.5 931.163 23.6133 931.55 23.84C931.936 24.0667 932.236 24.38 932.45 24.78C932.676 25.18 932.79 25.6533 932.79 26.2C932.79 26.2933 932.77 26.4133 932.73 26.56C932.69 26.6933 932.65 26.7933 932.61 26.86L933.25 25.94H926.65V27.3H934.51C934.51 27.2733 934.51 27.2133 934.51 27.12C934.523 27.0133 934.53 26.9133 934.53 26.82C934.53 25.8467 934.356 25.0067 934.01 24.3C933.663 23.5933 933.163 23.0533 932.51 22.68C931.87 22.2933 931.096 22.1 930.19 22.1C929.283 22.1 928.483 22.3 927.79 22.7C927.11 23.1 926.576 23.66 926.19 24.38C925.816 25.1 925.63 25.94 925.63 26.9C925.63 27.8467 925.81 28.68 926.17 29.4C926.543 30.12 927.056 30.6867 927.71 31.1C928.376 31.5 929.136 31.7 929.99 31.7ZM937.443 26.9C937.443 26.26 937.576 25.6933 937.843 25.2C938.123 24.6933 938.496 24.3 938.963 24.02C939.443 23.74 939.983 23.6 940.583 23.6C941.076 23.6 941.536 23.68 941.963 23.84C942.403 23.9867 942.783 24.1867 943.103 24.44C943.423 24.6933 943.649 24.9733 943.783 25.28V23.28C943.463 22.9067 943.003 22.62 942.403 22.42C941.816 22.2067 941.209 22.1 940.583 22.1C939.689 22.1 938.883 22.3067 938.163 22.72C937.443 23.1333 936.869 23.7 936.443 24.42C936.029 25.14 935.823 25.9667 935.823 26.9C935.823 27.82 936.029 28.6467 936.443 29.38C936.869 30.1 937.443 30.6667 938.163 31.08C938.883 31.4933 939.689 31.7 940.583 31.7C941.209 31.7 941.816 31.6 942.403 31.4C943.003 31.1867 943.463 30.8933 943.783 30.52V28.52C943.649 28.8133 943.423 29.0933 943.103 29.36C942.783 29.6133 942.403 29.82 941.963 29.98C941.536 30.1267 941.076 30.2 940.583 30.2C939.983 30.2 939.443 30.06 938.963 29.78C938.496 29.4867 938.123 29.0933 937.843 28.6C937.576 28.1067 937.443 27.54 937.443 26.9ZM944.873 22.3V23.8H949.473V22.3H944.873ZM946.373 19.1V31.5H947.973V19.1H946.373ZM1000.49 24.1H1002.75C1003.59 24.1 1004.31 23.98 1004.93 23.74C1005.55 23.5 1006.04 23.1467 1006.39 22.68C1006.73 22.2133 1006.91 21.6533 1006.91 21C1006.91 20.2 1006.73 19.5467 1006.39 19.04C1006.04 18.52 1005.55 18.1333 1004.93 17.88C1004.31 17.6267 1003.59 17.5 1002.75 17.5H999.147V31.5H1002.95C1003.85 31.5 1004.66 31.3533 1005.37 31.06C1006.09 30.7533 1006.65 30.3 1007.07 29.7C1007.49 29.0867 1007.71 28.32 1007.71 27.4C1007.71 26.76 1007.59 26.2067 1007.35 25.74C1007.11 25.2733 1006.77 24.8933 1006.33 24.6C1005.9 24.2933 1005.4 24.0667 1004.83 23.92C1004.25 23.7733 1003.63 23.7 1002.95 23.7H1000.49V24.64H1002.95C1003.4 24.64 1003.81 24.7 1004.19 24.82C1004.56 24.9267 1004.88 25.0933 1005.15 25.32C1005.43 25.5467 1005.64 25.8267 1005.79 26.16C1005.93 26.4933 1006.01 26.8733 1006.01 27.3C1006.01 27.8733 1005.87 28.36 1005.61 28.76C1005.35 29.16 1004.99 29.4667 1004.53 29.68C1004.07 29.8933 1003.55 30 1002.95 30H1000.85V19H1002.75C1003.45 19 1004.04 19.1867 1004.51 19.56C1004.97 19.92 1005.21 20.4333 1005.21 21.1C1005.21 21.54 1005.1 21.9133 1004.89 22.22C1004.67 22.5267 1004.38 22.76 1004.01 22.92C1003.63 23.08 1003.21 23.16 1002.75 23.16H1000.49V24.1ZM1010.2 15.9V31.5H1011.8V15.9H1010.2ZM1014.01 26.9C1014.01 27.82 1014.22 28.6467 1014.63 29.38C1015.06 30.1 1015.63 30.6667 1016.35 31.08C1017.07 31.4933 1017.88 31.7 1018.77 31.7C1019.68 31.7 1020.48 31.4933 1021.19 31.08C1021.91 30.6667 1022.48 30.1 1022.89 29.38C1023.32 28.6467 1023.53 27.82 1023.53 26.9C1023.53 25.9667 1023.32 25.14 1022.89 24.42C1022.48 23.7 1021.91 23.1333 1021.19 22.72C1020.48 22.3067 1019.68 22.1 1018.77 22.1C1017.88 22.1 1017.07 22.3067 1016.35 22.72C1015.63 23.1333 1015.06 23.7 1014.63 24.42C1014.22 25.14 1014.01 25.9667 1014.01 26.9ZM1015.63 26.9C1015.63 26.26 1015.76 25.6933 1016.03 25.2C1016.31 24.6933 1016.68 24.3 1017.15 24.02C1017.63 23.74 1018.17 23.6 1018.77 23.6C1019.37 23.6 1019.9 23.74 1020.37 24.02C1020.85 24.3 1021.22 24.6933 1021.49 25.2C1021.77 25.6933 1021.91 26.26 1021.91 26.9C1021.91 27.54 1021.77 28.1067 1021.49 28.6C1021.22 29.0933 1020.85 29.4867 1020.37 29.78C1019.9 30.06 1019.37 30.2 1018.77 30.2C1018.17 30.2 1017.63 30.06 1017.15 29.78C1016.68 29.4867 1016.31 29.0933 1016.03 28.6C1015.76 28.1067 1015.63 27.54 1015.63 26.9ZM1025.11 32.1C1025.11 32.8867 1025.3 33.58 1025.69 34.18C1026.07 34.7933 1026.61 35.2667 1027.29 35.6C1027.98 35.9333 1028.77 36.1 1029.67 36.1C1030.44 36.1 1031.17 35.92 1031.87 35.56C1032.56 35.2 1033.13 34.66 1033.57 33.94C1034.01 33.2333 1034.23 32.3533 1034.23 31.3V22.3H1032.63V31.3C1032.63 32.0733 1032.47 32.7 1032.17 33.18C1031.87 33.6733 1031.5 34.0333 1031.05 34.26C1030.59 34.4867 1030.13 34.6 1029.67 34.6C1029.07 34.6 1028.55 34.48 1028.11 34.24C1027.67 34.0133 1027.33 33.7067 1027.09 33.32C1026.85 32.9467 1026.73 32.54 1026.73 32.1H1025.11ZM1024.93 26.9C1024.93 27.8867 1025.13 28.74 1025.55 29.46C1025.96 30.18 1026.51 30.7333 1027.21 31.12C1027.9 31.5067 1028.66 31.7 1029.49 31.7C1030.26 31.7 1030.93 31.5067 1031.51 31.12C1032.08 30.7333 1032.53 30.18 1032.85 29.46C1033.18 28.74 1033.35 27.8867 1033.35 26.9C1033.35 25.9 1033.18 25.0467 1032.85 24.34C1032.53 23.62 1032.08 23.0667 1031.51 22.68C1030.93 22.2933 1030.26 22.1 1029.49 22.1C1028.66 22.1 1027.9 22.2933 1027.21 22.68C1026.51 23.0667 1025.96 23.62 1025.55 24.34C1025.13 25.0467 1024.93 25.9 1024.93 26.9ZM1026.55 26.9C1026.55 26.1933 1026.69 25.5933 1026.97 25.1C1027.26 24.6067 1027.65 24.2333 1028.13 23.98C1028.61 23.7267 1029.13 23.6 1029.69 23.6C1030.03 23.6 1030.38 23.6733 1030.73 23.82C1031.07 23.9667 1031.39 24.18 1031.67 24.46C1031.96 24.74 1032.19 25.0867 1032.37 25.5C1032.54 25.9 1032.63 26.3667 1032.63 26.9C1032.63 27.6067 1032.48 28.2067 1032.19 28.7C1031.89 29.1933 1031.52 29.5667 1031.07 29.82C1030.61 30.0733 1030.15 30.2 1029.69 30.2C1029.13 30.2 1028.61 30.0733 1028.13 29.82C1027.65 29.5667 1027.26 29.1933 1026.97 28.7C1026.69 28.2067 1026.55 27.6067 1026.55 26.9ZM1086.2 24.5C1086.2 23.4067 1086.44 22.4533 1086.92 21.64C1087.41 20.8133 1088.05 20.1667 1088.84 19.7C1089.63 19.2333 1090.48 19 1091.4 19C1092.07 19 1092.67 19.0867 1093.22 19.26C1093.78 19.4333 1094.29 19.68 1094.74 20C1095.19 20.3067 1095.58 20.6667 1095.9 21.08V18.84C1095.31 18.32 1094.67 17.9333 1093.98 17.68C1093.29 17.4267 1092.43 17.3 1091.4 17.3C1090.43 17.3 1089.51 17.48 1088.66 17.84C1087.82 18.1867 1087.08 18.6867 1086.44 19.34C1085.8 19.98 1085.3 20.74 1084.94 21.62C1084.58 22.5 1084.4 23.46 1084.4 24.5C1084.4 25.54 1084.58 26.5 1084.94 27.38C1085.3 28.26 1085.8 29.0267 1086.44 29.68C1087.08 30.32 1087.82 30.82 1088.66 31.18C1089.51 31.5267 1090.43 31.7 1091.4 31.7C1092.43 31.7 1093.29 31.5733 1093.98 31.32C1094.67 31.0667 1095.31 30.68 1095.9 30.16V27.92C1095.58 28.3333 1095.19 28.7 1094.74 29.02C1094.29 29.3267 1093.78 29.5667 1093.22 29.74C1092.67 29.9133 1092.07 30 1091.4 30C1090.48 30 1089.63 29.7667 1088.84 29.3C1088.05 28.8333 1087.41 28.1867 1086.92 27.36C1086.44 26.5333 1086.2 25.58 1086.2 24.5ZM1097.99 26.9C1097.99 27.82 1098.2 28.6467 1098.61 29.38C1099.04 30.1 1099.61 30.6667 1100.33 31.08C1101.05 31.4933 1101.86 31.7 1102.75 31.7C1103.66 31.7 1104.47 31.4933 1105.17 31.08C1105.89 30.6667 1106.46 30.1 1106.87 29.38C1107.3 28.6467 1107.51 27.82 1107.51 26.9C1107.51 25.9667 1107.3 25.14 1106.87 24.42C1106.46 23.7 1105.89 23.1333 1105.17 22.72C1104.47 22.3067 1103.66 22.1 1102.75 22.1C1101.86 22.1 1101.05 22.3067 1100.33 22.72C1099.61 23.1333 1099.04 23.7 1098.61 24.42C1098.2 25.14 1097.99 25.9667 1097.99 26.9ZM1099.61 26.9C1099.61 26.26 1099.75 25.6933 1100.01 25.2C1100.29 24.6933 1100.67 24.3 1101.13 24.02C1101.61 23.74 1102.15 23.6 1102.75 23.6C1103.35 23.6 1103.89 23.74 1104.35 24.02C1104.83 24.3 1105.21 24.6933 1105.47 25.2C1105.75 25.6933 1105.89 26.26 1105.89 26.9C1105.89 27.54 1105.75 28.1067 1105.47 28.6C1105.21 29.0933 1104.83 29.4867 1104.35 29.78C1103.89 30.06 1103.35 30.2 1102.75 30.2C1102.15 30.2 1101.61 30.06 1101.13 29.78C1100.67 29.4867 1100.29 29.0933 1100.01 28.6C1099.75 28.1067 1099.61 27.54 1099.61 26.9ZM1115.61 25.9V31.5H1117.21V25.7C1117.21 24.5933 1116.92 23.72 1116.35 23.08C1115.79 22.4267 1115.02 22.1 1114.05 22.1C1113.45 22.1 1112.92 22.2333 1112.45 22.5C1112 22.7667 1111.62 23.18 1111.31 23.74V22.3H1109.71V31.5H1111.31V25.9C1111.31 25.4467 1111.4 25.0467 1111.59 24.7C1111.79 24.3533 1112.06 24.0867 1112.41 23.9C1112.77 23.7 1113.18 23.6 1113.65 23.6C1114.29 23.6 1114.78 23.7933 1115.11 24.18C1115.44 24.5667 1115.61 25.14 1115.61 25.9ZM1118.82 22.3V23.8H1123.42V22.3H1118.82ZM1120.32 19.1V31.5H1121.92V19.1H1120.32ZM1125.74 28.66C1125.74 28.3267 1125.82 28.04 1125.98 27.8C1126.14 27.56 1126.38 27.3733 1126.7 27.24C1127.04 27.1067 1127.46 27.04 1127.98 27.04C1128.54 27.04 1129.07 27.1133 1129.56 27.26C1130.06 27.3933 1130.54 27.62 1131 27.94V27C1130.91 26.88 1130.73 26.7267 1130.46 26.54C1130.2 26.34 1129.84 26.1667 1129.38 26.02C1128.94 25.86 1128.39 25.78 1127.72 25.78C1126.59 25.78 1125.7 26.0533 1125.06 26.6C1124.44 27.1333 1124.12 27.8467 1124.12 28.74C1124.12 29.3667 1124.27 29.9 1124.56 30.34C1124.86 30.78 1125.24 31.12 1125.72 31.36C1126.22 31.5867 1126.74 31.7 1127.3 31.7C1127.81 31.7 1128.32 31.6067 1128.82 31.42C1129.34 31.2333 1129.78 30.9467 1130.12 30.56C1130.48 30.1733 1130.66 29.6867 1130.66 29.1L1130.34 27.9C1130.34 28.38 1130.22 28.8067 1129.98 29.18C1129.76 29.54 1129.44 29.82 1129.04 30.02C1128.66 30.22 1128.22 30.32 1127.72 30.32C1127.34 30.32 1126.99 30.26 1126.68 30.14C1126.39 30.0067 1126.16 29.8133 1125.98 29.56C1125.82 29.3067 1125.74 29.0067 1125.74 28.66ZM1125.5 24.42C1125.65 24.3133 1125.85 24.1867 1126.1 24.04C1126.36 23.8933 1126.66 23.7667 1127.02 23.66C1127.4 23.5533 1127.81 23.5 1128.26 23.5C1128.54 23.5 1128.81 23.5267 1129.06 23.58C1129.32 23.6333 1129.54 23.72 1129.72 23.84C1129.92 23.96 1130.08 24.1267 1130.18 24.34C1130.29 24.54 1130.34 24.8 1130.34 25.12V31.5H1131.94V24.9C1131.94 24.3 1131.79 23.7933 1131.48 23.38C1131.19 22.9667 1130.77 22.6533 1130.22 22.44C1129.69 22.2133 1129.06 22.1 1128.34 22.1C1127.49 22.1 1126.76 22.2267 1126.14 22.48C1125.54 22.7333 1125.07 22.9867 1124.72 23.24L1125.5 24.42ZM1135.37 26.9C1135.37 26.26 1135.51 25.6933 1135.77 25.2C1136.05 24.6933 1136.43 24.3 1136.89 24.02C1137.37 23.74 1137.91 23.6 1138.51 23.6C1139.01 23.6 1139.47 23.68 1139.89 23.84C1140.33 23.9867 1140.71 24.1867 1141.03 24.44C1141.35 24.6933 1141.58 24.9733 1141.71 25.28V23.28C1141.39 22.9067 1140.93 22.62 1140.33 22.42C1139.75 22.2067 1139.14 22.1 1138.51 22.1C1137.62 22.1 1136.81 22.3067 1136.09 22.72C1135.37 23.1333 1134.8 23.7 1134.37 24.42C1133.96 25.14 1133.75 25.9667 1133.75 26.9C1133.75 27.82 1133.96 28.6467 1134.37 29.38C1134.8 30.1 1135.37 30.6667 1136.09 31.08C1136.81 31.4933 1137.62 31.7 1138.51 31.7C1139.14 31.7 1139.75 31.6 1140.33 31.4C1140.93 31.1867 1141.39 30.8933 1141.71 30.52V28.52C1141.58 28.8133 1141.35 29.0933 1141.03 29.36C1140.71 29.6133 1140.33 29.82 1139.89 29.98C1139.47 30.1267 1139.01 30.2 1138.51 30.2C1137.91 30.2 1137.37 30.06 1136.89 29.78C1136.43 29.4867 1136.05 29.0933 1135.77 28.6C1135.51 28.1067 1135.37 27.54 1135.37 26.9ZM1142.8 22.3V23.8H1147.4V22.3H1142.8ZM1144.3 19.1V31.5H1145.9V19.1H1144.3Z" fill="#292F36"/>
<g opacity="0.8">
<path d="M1194.68 30.1844L1200 35.5001M1197.38 23.6875C1197.38 28.7616 1193.26 32.875 1188.19 32.875C1183.11 32.875 1179 28.7616 1179 23.6875C1179 18.6134 1183.11 14.5 1188.19 14.5C1193.26 14.5 1197.38 18.6134 1197.38 23.6875Z" stroke="#141414" stroke-width="1.5" stroke-linecap="round" stroke-linejoin="round"/>
</g>
</svg>
